<?xml version="1.0" encoding="UTF-8" standalone="no"?>
<svg
   xmlns:dc="http://purl.org/dc/elements/1.1/"
   xmlns:cc="http://creativecommons.org/ns#"
   xmlns:rdf="http://www.w3.org/1999/02/22-rdf-syntax-ns#"
   xmlns:svg="http://www.w3.org/2000/svg"
   xmlns="http://www.w3.org/2000/svg"
   xmlns:sodipodi="http://sodipodi.sourceforge.net/DTD/sodipodi-0.dtd"
   xmlns:inkscape="http://www.inkscape.org/namespaces/inkscape"
   version="1.1"
   id="svg2"
   xml:space="preserve"
   width="1260.1427"
   height="1610.0933"
   viewBox="0 0 1260.1427 1610.0933"
   sodipodi:docname="Logo Cenoteando.ai"><metadata
     id="metadata8"><rdf:RDF><cc:Work
         rdf:about=""><dc:format>image/svg+xml</dc:format><dc:type
           rdf:resource="http://purl.org/dc/dcmitype/StillImage" /></cc:Work></rdf:RDF></metadata><defs
     id="defs6"><clipPath
       clipPathUnits="userSpaceOnUse"
       id="clipPath18"><path
         d="M 0,1207.574 H 945.107 V 0 H 0 Z"
         id="path16" /></clipPath></defs><sodipodi:namedview
     pagecolor="#ffffff"
     bordercolor="#666666"
     borderopacity="1"
     objecttolerance="10"
     gridtolerance="10"
     guidetolerance="10"
     inkscape:pageopacity="0"
     inkscape:pageshadow="2"
     inkscape:window-width="640"
     inkscape:window-height="480"
     id="namedview4" /><g
     id="g10"
     inkscape:groupmode="layer"
     inkscape:label="Logo Cenoteando"
     transform="matrix(1.3333333,0,0,-1.3333333,0,1610.0933)"><g
       id="g12"><g
         id="g14"
         clip-path="url(#clipPath18)"><g
           id="g20"
           transform="translate(510.3119,1085.5593)"><path
             d="m 0,0 c 9.495,-4.387 19.804,-2.381 29.673,-3.376 180.512,-18.199 329.056,-151.619 362.008,-328.809 44.406,-238.786 -114.248,-445.41 -329.672,-481.281 -165.946,-27.632 -301.453,29.587 -404.224,163.097 -10.459,13.587 -20.041,27.848 -29.982,41.831 -0.264,0.372 0.03,1.14 0.128,2.833 16.972,-12.055 34.436,-22.169 53.077,-30.222 2.708,-1.17 4.483,-4.688 6.484,-7.278 61.946,-80.17 143.236,-128.294 242.855,-144.955 155.936,-26.079 316.427,51.561 392.622,191.103 61.178,112.041 64.884,227.373 14.266,344.552 -3.26,7.548 -7.773,13.126 -14.828,17.546 -23.471,14.705 -46.572,30.002 -69.853,45.012 -11.045,7.122 -28.697,-1.287 -29.535,-14.223 -2.436,-37.525 -4.669,-75.062 -6.983,-112.594 -0.112,-1.822 -0.225,-3.642 -0.483,-7.851 -7.679,16.485 -11.988,31.241 -13.439,47.144 -3.686,40.413 -8.21,80.75 -12.134,121.143 -0.552,5.685 -3.089,8.868 -8.03,11.096 -8.338,3.759 -17.593,12.2 -24.472,10.521 -6.423,-1.568 -7.042,-15.071 -10.339,-23.263 -4.918,-12.215 -9.248,-24.666 -13.859,-37.006 -0.22,-0.59 -0.738,-1.07 -1.731,-2.463 -10.239,26.432 -20.279,52.313 -30.286,78.206 -2.851,7.376 -6.002,14.668 -8.285,22.219 -1.733,5.728 -5.03,6.28 -10.288,6.025 -6.332,-0.306 -5.338,-4.437 -5.649,-8.184 -2.672,-32.229 -5.32,-64.46 -7.997,-96.689 -0.129,-1.554 -0.452,-3.093 -0.827,-5.575 -8.817,4.897 -16,8.666 -15.418,20.508 0.693,14.104 -0.937,28.326 -1.627,42.493 -0.155,3.198 0.898,6.664 -1.719,9.413 -0.35,-0.063 -0.687,-0.051 -0.955,-0.182 -5.496,-2.695 -5.694,-12.883 -12.905,-11.461 -5.729,1.13 -10.849,6.006 -15.919,9.663 -7.451,5.376 -18.333,7.665 -19.455,20.074 -6.958,-21.715 -13.916,-43.429 -21.622,-67.478 -9.518,17.561 -18.021,33.249 -26.524,48.937 -0.615,-0.017 -1.228,-0.035 -1.843,-0.053 -1.359,-30.495 -2.718,-60.989 -4.175,-93.658 -7.058,10.47 -13.784,18.399 -14.57,29.974 -1.899,27.98 -4.491,55.913 -6.8,83.865 -0.3,3.618 -0.813,7.237 -0.815,10.855 -0.004,5.381 -2.403,7.185 -7.779,7.64 -5.942,0.503 -6.364,-3.047 -7.195,-6.999 -6.04,-28.711 -11.988,-57.442 -18.29,-86.095 -0.776,-3.534 0.289,-8.884 -4.161,-10.246 -6.908,-2.115 -14.284,-2.968 -21.497,-2.088 -2.586,0.316 -2.595,4.302 -3.34,6.686 -4.908,15.721 -9.92,31.422 -14.217,47.314 -2.08,7.693 -4.758,11.113 -12.168,5.343 -0.775,-0.604 -1.632,-1.271 -2.553,-1.498 -18.42,-4.544 -22.268,-17.372 -23.663,-34.858 -4.094,-51.294 -10.224,-102.425 -15.59,-153.617 -0.238,-2.268 -0.807,-4.502 -1.438,-7.932 -7.152,5.626 -11.818,10.607 -11.892,20.169 -0.295,37.944 -1.639,75.879 -2.249,113.823 -0.079,4.889 -2.18,6.582 -5.989,8.655 -10.935,5.95 -20.778,5.793 -32.316,-0.016 -26.461,-13.321 -53.787,-24.913 -80.573,-37.606 -5.606,-2.656 -8.596,-2.065 -12.031,3.179 -15.435,23.564 -16.44,14.24 -1.44,36.915 70.081,105.935 168.394,167.62 294.2,185.243 11.08,1.551 22.361,1.633 33.534,2.562 2.37,0.198 5.397,-1.407 6.959,1.917 z"
             style="fill:#59471d;fill-opacity:1;fill-rule:nonzero;stroke:none"
             id="path22" /></g><g
           id="g24"
           transform="translate(46.5477,710.9797)"><path
             d="m 0,0 c 4.802,12.962 4.864,26.837 7.715,40.196 9.932,46.541 37.862,115.318 59.104,143.831 3.661,-1.02 4.387,-4.639 6.033,-7.262 39.99,-63.734 88.252,-120.157 147.73,-166.55 39.205,-30.581 47.009,-71.295 38.247,-117.183 -7.217,-37.796 -23.765,-71.842 -44.578,-103.872 -3.308,-5.093 -3.563,-8.88 -0.897,-14.269 40.759,-82.399 106.96,-130.631 197.173,-145.451 130.169,-21.384 269.342,45.855 342.787,169.599 38.359,64.628 59.27,134.235 57.002,210.003 -0.122,4.09 -0.713,8.167 -1.207,13.588 5.181,-3.719 4.506,-8.346 5.004,-12.082 25.772,-193.264 -108.625,-375.747 -300.822,-404.955 -141.292,-21.472 -257.977,25.475 -347.563,136.765 -29.862,37.097 -46.937,81.597 -62.509,126.241 -18.876,54.119 -30.332,109.859 -34.446,167.072 -0.252,3.501 -0.975,6.969 -1.715,12.09 -5.624,-25.613 0.364,-93.958 12.53,-144.723 11.257,-46.97 28.046,-91.985 49.643,-135.769 -1.428,-0.19 -2.479,-0.686 -3.053,-0.356 C 63.839,-197.254 19.438,-147.651 4.838,-75.104 3.385,-67.882 3.993,-60.168 0,-53.511 Z"
             style="fill:#93b93e;fill-opacity:1;fill-rule:nonzero;stroke:none"
             id="path26" /></g><g
           id="g28"
           transform="translate(457.4296,703.4367)"><path
             d="m 0,0 c 66.58,0.397 125.232,-13.57 183.693,-28.858 40.54,-10.602 79.627,-25.598 119.29,-38.861 21.379,-7.15 43.349,-11.337 66.019,-11.139 3.944,0.035 8.306,1.01 5.605,-6.11 -18.994,-50.058 -39.116,-99.504 -73.978,-141.209 -70.059,-83.814 -158.945,-128.386 -268.99,-124.312 -82.018,3.035 -147.953,39.256 -196.91,105.555 -1.368,1.853 -2.489,3.89 -3.84,5.758 -11.267,15.572 -13.875,29.848 -2.906,48.551 18.522,31.576 31.338,66.045 37.38,102.586 2.009,12.145 2.328,24.439 0.652,36.488 -1.443,10.373 2.518,17.19 10.23,22.824 20.036,14.64 43.427,20.182 67.23,24.384 C -35.996,-0.719 -15.261,0.538 0,0"
             style="fill:#1f99a8;fill-opacity:1;fill-rule:nonzero;stroke:none"
             id="path30" /></g><g
           id="g32"
           transform="translate(406.0414,148.3064)"><path
             d="M 0,0 C 0.129,18.179 -14.176,33.141 -32.012,33.479 -49.935,33.82 -65.839,18.477 -66.134,0.562 c -0.293,-17.809 15.34,-33.281 33.565,-33.22 C -14.301,-32.599 -0.131,-18.39 0,0 m -32.755,-49.756 c -28.119,-3.821 -52.166,24.608 -51.441,50.349 0.799,28.391 22.527,50.805 50.845,50.929 28.679,0.126 51.978,-22.496 52.082,-50.868 0.113,-30.561 -27.109,-54.45 -51.486,-50.41"
             style="fill:#249baa;fill-opacity:1;fill-rule:nonzero;stroke:none"
             id="path34" /></g><g
           id="g36"
           transform="translate(859.1527,115.6481)"><path
             d="M 0,0 C 18.252,0.142 32.534,14.619 32.449,32.893 32.362,51.53 17.489,66.372 -0.867,66.139 -18.378,65.916 -33.664,50.497 -33.689,33.03 -33.716,14.84 -18.434,-0.144 0,0 m 49.544,32.99 c 0,-31.446 -19.277,-48.754 -51.555,-50.537 -23.328,-1.289 -50.47,21.83 -49.726,50.621 0.74,28.611 22.304,50.446 50.728,51.267 27.064,0.782 54.637,-24.442 50.553,-51.351"
             style="fill:#249baa;fill-opacity:1;fill-rule:nonzero;stroke:none"
             id="path38" /></g><g
           id="g40"
           transform="translate(748.183,178.6335)"><path
             d="m 0,0 c -6.02,1.402 -8.309,-1.335 -8.09,-8.396 0.467,-15.106 0.341,-30.24 0.039,-45.354 -0.108,-5.424 1.376,-7.379 7.113,-7.397 19.406,-0.066 34.299,12.683 34.552,30.224 C 33.862,-13.729 19.908,-0.543 0,0 m -25.829,-30.538 c 0,13.846 0.228,27.696 -0.111,41.533 -0.137,5.546 1.519,7.666 7.21,7.36 7.56,-0.406 15.177,0.237 22.737,-0.179 27.778,-1.528 47.441,-21.589 47.502,-48.155 0.062,-27.438 -19.299,-47.547 -47.45,-49.284 -29.888,-1.843 -29.888,-1.843 -29.888,27.957 z"
             style="fill:#249baa;fill-opacity:1;fill-rule:nonzero;stroke:none"
             id="path42" /></g><g
           id="g44"
           transform="translate(139.1937,98.5505)"><path
             d="m 0,0 c -24.899,0 -43.32,13.817 -49.447,37.09 -5.93,22.525 3.867,45.917 24.175,57.718 19.316,11.225 45.284,8.009 61.21,-7.983 2.134,-2.142 8.627,-5.123 2.896,-8.868 C 34.518,75.137 31.323,65.822 22.957,73.591 8.268,87.232 -10.504,86.433 -23.72,72.499 -35.92,59.637 -36.058,40.719 -24.044,27.781 -11.511,14.284 8.725,13.379 23.198,25.668 28.714,30.353 37.561,28.916 41.549,22.961 43.787,19.62 40.99,18.109 39.527,16.27 30.72,5.196 17.928,-0.001 0,0"
             style="fill:#249baa;fill-opacity:1;fill-rule:nonzero;stroke:none"
             id="path46" /></g><g
           id="g48"
           transform="translate(246.7225,194.9235)"><path
             d="m 0,0 c 17.595,-16.53 34.435,-32.351 51.535,-48.416 0,14.678 0.198,29.716 -0.084,44.745 -0.14,7.4 4.987,5.614 8.811,5.467 3.646,-0.141 9.165,2.47 9.136,-5.109 -0.11,-29.893 -0.044,-59.786 -0.044,-89.25 -16.998,16 -33.848,31.864 -51.523,48.502 0,-14.02 -0.55,-27.974 0.21,-41.857 0.442,-8.086 -2.867,-8.849 -9.631,-9.008 -7.229,-0.169 -8.645,2.353 -8.561,9.033 C 0.206,-57.551 0,-29.201 0,0"
             style="fill:#1f99a8;fill-opacity:1;fill-rule:nonzero;stroke:none"
             id="path50" /></g><g
           id="g52"
           transform="translate(664.8949,151.6306)"><path
             d="m 0,0 c 0,-15.702 -0.44,-30.162 0.169,-44.578 0.355,-8.421 -4.89,-6.635 -9.579,-6.818 -4.851,-0.19 -8.706,-0.552 -8.596,6.82 0.438,29.022 0.18,58.056 0.18,86.786 16.725,-15.847 33.483,-31.723 51.527,-48.817 0,14.7 0.398,28.603 -0.164,42.467 -0.291,7.186 1.422,9.629 9.117,9.665 7.846,0.038 9.129,-2.714 9.035,-9.738 C 51.311,7.442 51.532,-20.91 51.532,-48.376 34.947,-32.807 18.094,-16.985 0,0"
             style="fill:#1f99a8;fill-opacity:1;fill-rule:nonzero;stroke:none"
             id="path54" /></g><g
           id="g56"
           transform="translate(489.1977,148.2897)"><path
             d="m 0,0 c -0.001,13.535 0.224,27.077 -0.104,40.604 -0.145,6.03 0.998,9.029 8.061,8.715 12.85,-0.57 25.757,-0.508 38.614,-0.034 7.462,0.277 6.903,-4.252 6.602,-8.934 C 52.89,35.921 55.44,29.712 46.812,30.184 40.559,30.526 34.257,30.493 28.004,30.141 24.784,29.96 19.76,32.293 18.896,27.118 17.933,21.354 16.414,14.441 19.675,9.74 c 2.752,-3.967 9.38,-1.838 14.112,-1.409 8.437,0.765 11.844,-1.548 11.171,-10.71 -0.461,-6.28 -2.493,-8.194 -8.249,-7.517 -1.954,0.23 -3.957,0.038 -5.939,0.036 -11.736,-0.011 -15.679,-5.693 -12.266,-17.014 1.12,-3.718 3.699,-3.168 6.187,-3.201 7.262,-0.097 14.555,-0.446 21.782,0.066 7.372,0.523 7.087,-4.043 6.697,-8.819 -0.356,-4.367 2.421,-10.495 -6.26,-10.281 -13.198,0.324 -26.414,0.28 -39.613,-0.013 -5.66,-0.126 -7.493,2.011 -7.385,7.525 C 0.183,-27.736 0.001,-13.866 0,0"
             style="fill:#2fa0ae;fill-opacity:1;fill-rule:nonzero;stroke:none"
             id="path58" /></g><g
           id="g60"
           transform="translate(187.4843,148.1198)"><path
             d="m 0,0 c 0.001,14.2 0.179,28.403 -0.092,42.598 -0.099,5.205 1.717,6.919 6.864,6.817 13.534,-0.268 27.084,-0.359 40.614,0.008 8.112,0.221 5.884,-5.384 5.861,-9.469 -0.023,-4.057 2.331,-9.909 -5.749,-9.593 -7.254,0.285 -14.569,-0.434 -21.782,0.178 -8.411,0.714 -8.315,-4.454 -7.63,-9.954 0.62,-4.971 -3.611,-13.088 7.183,-12.299 2.956,0.217 6.012,-0.383 8.9,0.108 9.187,1.556 11.256,-2.662 10.727,-11.046 -0.363,-5.744 -2.253,-7.651 -7.687,-7.091 -2.941,0.303 -5.99,-0.3 -8.901,0.12 -8.073,1.167 -10.665,-1.731 -10.628,-10.137 0.037,-8.227 2.278,-11.294 10.512,-10.296 4.882,0.592 9.994,-0.521 14.827,0.243 9.473,1.495 10.94,-3.005 10.557,-11.115 -0.271,-5.736 -1.245,-8.304 -7.676,-8.071 -12.862,0.466 -25.757,0.346 -38.629,0.042 -5.554,-0.131 -7.53,1.655 -7.386,7.351 C 0.234,-27.745 -0.001,-13.87 0,0"
             style="fill:#2fa0ae;fill-opacity:1;fill-rule:nonzero;stroke:none"
             id="path62" /></g><g
           id="g64"
           transform="translate(596.8441,156.5485)"><path
             d="m 0,0 c -2.945,-6.912 -8.678,-11.21 -5.959,-17.285 0.665,-1.486 9.855,-1.711 10.815,-0.039 C 7.99,-11.87 1.731,-7.742 0,0 m -47.026,-56.162 c 15.28,32.321 30.131,63.735 45.939,97.173 7.74,-15.537 14.573,-29.144 21.309,-42.798 8.004,-16.225 15.801,-32.553 23.952,-48.703 2.559,-5.071 1.958,-6.741 -4.074,-6.85 -7.958,-0.144 -15.034,-0.141 -17.508,9.672 -2.564,10.169 -9.38,14.058 -19.761,12.359 -3.53,-0.578 -7.287,-0.481 -10.85,-0.009 -7.006,0.927 -10.543,-2.034 -13.347,-8.455 -6.582,-15.074 -6.941,-14.917 -25.66,-12.389"
             style="fill:#249baa;fill-opacity:1;fill-rule:nonzero;stroke:none"
             id="path66" /></g><g
           id="g68"
           transform="translate(715.1644,666.6057)"><path
             d="m 0,0 c 15.032,5.536 28.524,6.179 41.775,6.232 30.336,0.122 59.797,2.729 85.91,23.205 0.744,-19.071 -2.372,-36.16 -3.833,-53.349 -0.483,-5.669 -5.069,-4.112 -8.362,-4.218 -21.979,-0.705 -43.238,3.356 -63.976,10.302 C 35.029,-12.306 18.651,-6.469 0,0"
             style="fill:#249baa;fill-opacity:1;fill-rule:nonzero;stroke:none"
             id="path70" /></g><g
           id="g72"
           transform="translate(447.1103,139.0847)"><path
             d="m 0,0 c 0,10.236 -0.4,20.494 0.139,30.702 0.364,6.906 -1.858,9.891 -8.812,8.74 -7.496,-1.24 -9.394,1.954 -9.453,9.313 -0.062,7.628 2.364,9.605 9.63,9.296 12.855,-0.548 25.776,-0.64 38.62,0.023 7.86,0.406 7.562,-3.909 7.42,-9.189 C 37.413,44 38.714,38.136 30.568,39.49 20.809,41.112 18.329,37.037 18.688,27.573 c 0.75,-19.784 -0.142,-39.627 0.406,-59.425 0.222,-8.066 -3.863,-8.063 -9.729,-8.107 -6.032,-0.045 -10.05,0.332 -9.533,8.27 C 0.517,-21.167 0.001,-10.567 0,0"
             style="fill:#2fa0ae;fill-opacity:1;fill-rule:nonzero;stroke:none"
             id="path74" /></g><g
           id="g76"
           transform="translate(621.6136,831.9211)"><path
             d="m 0,0 c -5.605,-3.966 -11.436,-7.653 -16.762,-11.964 -8.01,-6.483 -13.854,-13.976 -7.199,-25.581 -13.56,12.378 -27.303,22.678 -44.103,28.294 9.526,2.008 9.688,2.209 23.478,-3.756 4.113,-1.78 6.941,-1.618 10.635,0.924 10.123,6.963 21.123,11.893 33.771,11.912 z"
             style="fill:#59471d;fill-opacity:1;fill-rule:nonzero;stroke:none"
             id="path78" /></g><g
           id="g80"
           transform="translate(640.4135,859.6188)"><path
             d="m 0,0 c -3.506,-5.922 -10.781,-8.862 -6.38,-19.285 -8.623,7.847 -15.893,13.006 -24.27,17.236 C -20.008,-6.905 -10.071,-4.592 0,0"
             style="fill:#59471d;fill-opacity:1;fill-rule:nonzero;stroke:none"
             id="path82" /></g><g
           id="g84"
           transform="translate(621.434,831.7497)"><path
             d="m 0,0 0.049,0.374 c 0,0 0.106,-0.233 0.119,-0.218 C 0.18,0.171 0,0 0,0"
             style="fill:#59471d;fill-opacity:1;fill-rule:nonzero;stroke:none"
             id="path86" /></g></g></g></g></svg>
