<?xml version="1.0" encoding="UTF-8" standalone="no"?>
<!DOCTYPE svg PUBLIC "-//W3C//DTD SVG 1.1//EN" "http://www.w3.org/Graphics/SVG/1.1/DTD/svg11.dtd">
<svg version="1.1" xmlns="http://www.w3.org/2000/svg" xmlns:xlink="http://www.w3.org/1999/xlink" preserveAspectRatio="xMidYMid meet" viewBox="0 0 640 640" width="640" height="640"><defs><path d="M343.95 0C351 3.41 358.64 1.85 365.96 2.63C499.84 16.79 610.01 120.64 634.45 258.57C667.38 444.43 549.71 605.26 389.94 633.18C266.87 654.69 166.37 610.15 90.15 506.23C82.39 495.66 75.28 484.56 67.91 473.67C67.72 473.38 67.93 472.78 68.01 471.47C80.59 480.85 93.55 488.72 107.37 494.99C109.38 495.9 110.7 498.64 112.18 500.66C158.12 563.06 218.41 600.52 292.3 613.49C407.95 633.79 526.98 573.35 583.49 464.74C628.86 377.53 631.61 287.75 594.07 196.54C591.65 190.67 588.3 186.33 583.07 182.89C565.66 171.44 548.53 159.53 531.26 147.85C523.07 142.31 509.98 148.85 509.36 158.92C507.55 188.13 505.9 217.35 504.18 246.56C504.1 247.98 504.01 249.4 503.82 252.67C498.13 239.84 494.93 228.36 493.85 215.98C491.12 184.52 487.76 153.12 484.85 121.68C484.44 117.26 482.56 114.78 478.9 113.05C472.71 110.12 465.85 103.55 460.75 104.86C455.99 106.08 455.53 116.59 453.08 122.96C449.43 132.47 446.22 142.16 442.8 151.77C442.64 152.23 442.26 152.6 441.52 153.69C433.92 133.11 426.48 112.97 419.06 92.81C416.94 87.07 414.61 81.39 412.91 75.52C411.63 71.06 409.18 70.63 405.28 70.83C400.59 71.07 401.32 74.28 401.09 77.2C399.11 102.28 397.15 127.37 395.16 152.46C395.07 153.67 394.83 154.87 394.55 156.8C388.01 152.99 382.68 150.05 383.11 140.83C383.63 129.86 382.42 118.79 381.91 107.76C381.79 105.27 382.57 102.57 380.63 100.43C380.37 100.48 380.12 100.47 379.92 100.57C375.85 102.67 375.7 110.6 370.35 109.49C366.1 108.61 362.31 104.82 358.55 101.97C353.02 97.79 344.95 96.01 344.12 86.35C338.96 103.25 333.8 120.15 328.08 138.87C321.02 125.2 314.72 112.99 308.41 100.78C307.95 100.79 307.5 100.81 307.04 100.82C306.03 124.56 305.03 148.29 303.95 173.72C298.71 165.57 293.72 159.4 293.14 150.39C291.73 128.61 289.81 106.87 288.1 85.11C287.87 82.3 287.49 79.48 287.49 76.66C287.49 72.47 285.71 71.07 281.72 70.72C277.32 70.32 277 73.09 276.39 76.16C271.91 98.51 267.5 120.88 262.82 143.18C262.25 145.93 263.04 150.09 259.74 151.15C254.61 152.8 249.14 153.46 243.79 152.78C241.87 152.53 241.87 149.43 241.31 147.57C237.67 135.34 233.96 123.12 230.77 110.75C229.23 104.76 227.24 102.1 221.75 106.59C221.17 107.06 220.54 107.58 219.85 107.75C206.19 111.29 203.34 121.28 202.3 134.89C199.27 174.81 194.72 214.61 190.74 254.46C190.56 256.22 190.14 257.96 189.67 260.63C184.37 256.25 180.91 252.38 180.85 244.93C180.64 215.4 179.64 185.87 179.19 156.34C179.13 152.53 177.57 151.21 174.74 149.6C166.63 144.97 159.33 145.09 150.78 149.61C131.15 159.98 110.89 169 91.02 178.88C86.86 180.95 84.64 180.49 82.1 176.41C70.65 158.07 69.9 165.32 81.03 147.68C133 65.22 205.92 17.2 299.22 3.49C307.44 2.28 315.81 2.22 324.09 1.49C325.85 1.34 328.1 2.59 329.26 0C332.2 0 341.01 0 343.95 0Z" id="c27PRThybb"></path><path d="M0 291.56C3.56 281.47 3.61 270.67 5.72 260.28C13.09 224.05 33.8 170.52 49.56 148.32C52.27 149.12 52.81 151.93 54.03 153.97C83.69 203.58 119.48 247.5 163.6 283.61C192.67 307.42 198.46 339.11 191.96 374.83C186.61 404.25 174.34 430.75 158.9 455.68C156.45 459.64 156.26 462.59 158.24 466.78C188.46 530.92 237.56 568.46 304.47 580C401.01 596.64 504.23 544.31 558.7 447.99C587.15 397.68 602.66 343.5 600.98 284.53C600.89 281.34 600.45 278.17 600.08 273.95C603.92 276.84 603.42 280.45 603.79 283.35C622.91 433.79 523.23 575.83 380.69 598.56C275.9 615.27 189.36 578.73 122.91 492.11C100.77 463.23 88.1 428.59 76.55 393.84C62.55 351.72 54.06 308.33 51.01 263.8C50.82 261.07 50.28 258.37 49.73 254.39C45.56 274.32 50 327.52 59.03 367.04C67.38 403.6 79.83 438.64 95.85 472.72C94.79 472.86 94.01 473.25 93.58 472.99C47.35 445.1 14.42 406.49 3.59 350.02C2.51 344.4 2.96 338.4 0 333.22C0 324.89 0 299.89 0 291.56Z" id="b5tWvpIdqW"></path><path d="M304.73 297.44C354.11 297.13 397.61 308 440.97 319.9C471.04 328.15 500.03 339.82 529.44 350.15C545.3 355.71 561.59 358.97 578.41 358.82C581.33 358.79 584.57 358.03 582.56 363.57C568.48 402.54 553.55 441.02 527.7 473.49C475.74 538.73 409.81 573.42 328.2 570.25C267.37 567.89 218.47 539.69 182.16 488.09C181.14 486.64 180.31 485.06 179.31 483.6C170.95 471.48 169.02 460.37 177.16 445.81C190.89 421.24 200.4 394.41 204.88 365.96C206.37 356.51 206.61 346.94 205.36 337.56C204.29 329.49 207.23 324.18 212.95 319.8C227.81 308.4 245.16 304.09 262.81 300.82C278.04 298 293.42 297.02 304.73 297.44" id="a1UqYcz1xl"></path><path d="M495.88 326.1C507.03 321.79 517.04 321.29 526.87 321.25C549.37 321.16 571.22 319.13 590.58 303.19C591.14 318.04 588.82 331.34 587.74 344.72C587.38 349.13 583.98 347.92 581.54 348C565.24 348.55 549.47 345.39 534.09 339.98C521.86 335.68 509.72 331.14 495.88 326.1" id="a41pbcTrWH"></path><path d="M426.5 197.43C422.35 200.51 418.02 203.38 414.07 206.74C408.13 211.78 403.8 217.62 408.73 226.65C398.67 217.02 388.48 209 376.02 204.63C383.09 203.06 383.21 202.91 393.43 207.55C396.48 208.94 398.58 208.81 401.32 206.83C408.83 201.41 416.99 197.57 426.37 197.56C426.4 197.53 426.48 197.45 426.5 197.43Z" id="i3iHJacJS2"></path><path d="M440.45 175.87C437.84 180.48 432.45 182.76 435.71 190.88C429.32 184.77 423.93 180.75 417.71 177.46C425.61 181.24 432.98 179.44 440.45 175.87" id="g16xuTFNk6"></path><path d="M426.37 197.56C426.39 197.38 426.4 197.29 426.41 197.27C426.41 197.27 426.48 197.45 426.49 197.44C426.5 197.43 426.37 197.56 426.37 197.56" id="fe6YnypCW"></path></defs><g><g><g><use xlink:href="#c27PRThybb" opacity="1" fill="#59471d" fill-opacity="1"></use><g><use xlink:href="#c27PRThybb" opacity="1" fill-opacity="0" stroke="#000000" stroke-width="1" stroke-opacity="0"></use></g></g><g><use xlink:href="#b5tWvpIdqW" opacity="1" fill="#93b93e" fill-opacity="1"></use><g><use xlink:href="#b5tWvpIdqW" opacity="1" fill-opacity="0" stroke="#000000" stroke-width="1" stroke-opacity="0"></use></g></g><g><use xlink:href="#a1UqYcz1xl" opacity="1" fill="#1f99a8" fill-opacity="1"></use><g><use xlink:href="#a1UqYcz1xl" opacity="1" fill-opacity="0" stroke="#000000" stroke-width="1" stroke-opacity="0"></use></g></g><g><use xlink:href="#a41pbcTrWH" opacity="1" fill="#249baa" fill-opacity="1"></use><g><use xlink:href="#a41pbcTrWH" opacity="1" fill-opacity="0" stroke="#000000" stroke-width="1" stroke-opacity="0"></use></g></g><g><use xlink:href="#i3iHJacJS2" opacity="1" fill="#59471d" fill-opacity="1"></use><g><use xlink:href="#i3iHJacJS2" opacity="1" fill-opacity="0" stroke="#000000" stroke-width="1" stroke-opacity="0"></use></g></g><g><use xlink:href="#g16xuTFNk6" opacity="1" fill="#59471d" fill-opacity="1"></use><g><use xlink:href="#g16xuTFNk6" opacity="1" fill-opacity="0" stroke="#000000" stroke-width="1" stroke-opacity="0"></use></g></g><g><use xlink:href="#fe6YnypCW" opacity="1" fill="#59471d" fill-opacity="1"></use><g><use xlink:href="#fe6YnypCW" opacity="1" fill-opacity="0" stroke="#000000" stroke-width="1" stroke-opacity="0"></use></g></g></g></g></svg>