<?xml version="1.0" standalone="no"?>
<!DOCTYPE svg PUBLIC "-//W3C//DTD SVG 20010904//EN"
 "http://www.w3.org/TR/2001/REC-SVG-20010904/DTD/svg10.dtd">
<svg version="1.0" xmlns="http://www.w3.org/2000/svg"
 width="700.000000pt" height="700.000000pt" viewBox="0 0 700.000000 700.000000"
 preserveAspectRatio="xMidYMid meet">
<metadata>
Created by potrace 1.14, written by Peter Selinger 2001-2017
</metadata>
<g transform="translate(0.000000,700.000000) scale(0.100000,-0.100000)"
fill="#000000" stroke="none">
<path d="M3591 6991 c-8 -5 -33 -9 -55 -10 -138 -1 -299 -21 -521 -66 -169
-34 -431 -118 -610 -195 -126 -54 -339 -162 -366 -186 -8 -8 -19 -14 -23 -14
-17 0 -280 -184 -353 -246 -11 -11 -52 -45 -90 -76 -120 -101 -322 -313 -439
-463 -130 -167 -319 -447 -330 -489 -4 -19 7 -44 49 -108 64 -98 79 -112 110
-104 24 6 292 133 592 282 154 76 163 79 230 79 58 0 78 -5 117 -28 26 -15 49
-35 52 -45 5 -16 12 -262 21 -791 4 -231 6 -257 25 -295 12 -22 34 -51 50 -64
l30 -24 1 24 c0 13 2 32 4 43 2 11 7 47 10 80 6 71 12 132 20 200 2 28 12 118
20 200 8 83 17 170 20 195 2 25 7 68 9 95 3 28 8 77 11 110 3 33 7 78 10 100
2 22 6 78 10 125 3 47 8 101 10 120 2 19 7 69 11 110 7 89 33 164 70 203 23
25 159 98 192 103 19 3 39 -33 57 -106 9 -36 37 -135 62 -220 25 -85 46 -161
47 -168 4 -25 25 -35 73 -34 81 2 142 21 148 46 11 57 67 334 71 356 3 14 23
115 45 225 23 110 43 211 46 225 5 32 12 38 45 44 40 7 68 -20 73 -69 2 -22 6
-78 10 -125 3 -47 8 -107 10 -135 7 -75 16 -192 21 -260 4 -60 7 -98 20 -250
3 -44 11 -91 16 -105 14 -38 91 -170 99 -170 3 0 7 39 9 88 1 48 3 114 5 147
1 33 6 139 10 235 4 96 9 200 10 230 2 30 4 64 5 75 l1 20 15 -20 c8 -11 46
-81 84 -155 121 -238 136 -263 137 -227 0 6 28 102 62 212 34 110 69 223 77
250 25 84 24 83 40 45 16 -37 27 -47 124 -114 160 -111 172 -114 215 -46 13
21 29 41 35 45 25 16 26 8 36 -285 4 -122 11 -207 20 -227 14 -35 93 -98 106
-85 4 4 10 39 13 77 3 39 7 95 10 125 2 30 7 87 10 125 8 109 15 195 20 258
12 136 15 176 20 247 4 41 10 78 14 83 14 15 69 15 90 1 11 -8 27 -36 35 -62
12 -39 126 -349 248 -677 17 -44 36 -98 43 -120 11 -36 13 -38 23 -19 17 32
118 321 140 401 31 111 38 120 97 113 26 -3 185 -97 206 -122 16 -17 20 -42
34 -188 3 -25 7 -69 10 -97 3 -29 7 -77 10 -105 3 -29 8 -73 10 -98 3 -25 7
-72 10 -105 3 -33 7 -78 9 -100 2 -22 7 -71 11 -110 3 -38 8 -86 10 -105 2
-19 7 -69 10 -110 3 -41 8 -86 10 -100 2 -14 7 -45 10 -69 14 -98 91 -322 95
-276 2 21 3 32 14 210 4 61 9 139 11 175 3 36 7 112 10 170 4 58 8 132 10 165
2 33 7 114 10 179 6 120 19 166 54 194 37 29 78 45 119 45 38 0 59 -11 175
-90 73 -49 211 -143 307 -207 220 -148 246 -175 301 -314 88 -225 173 -516
204 -702 3 -19 10 -60 15 -90 42 -246 49 -682 16 -920 -27 -189 -85 -451 -132
-589 -19 -57 -83 -230 -94 -256 -225 -521 -456 -854 -835 -1204 -90 -82 -304
-245 -410 -310 -38 -24 -81 -52 -95 -61 -42 -28 -300 -155 -395 -193 -247
-100 -538 -174 -806 -204 -137 -16 -629 -7 -699 12 -8 2 -35 7 -60 10 -145 20
-493 112 -610 162 -8 3 -19 7 -25 9 -19 4 -170 71 -240 106 -192 95 -367 206
-530 337 -38 30 -79 63 -89 71 -34 26 -290 283 -340 340 -26 30 -85 105 -131
165 -58 77 -93 114 -117 124 -57 24 -219 117 -313 180 -49 33 -91 58 -94 55
-8 -8 249 -383 349 -508 227 -285 514 -562 780 -753 187 -134 444 -274 650
-352 47 -18 94 -37 105 -41 108 -44 418 -117 575 -135 30 -3 62 -8 70 -10 54
-14 452 -21 580 -10 120 10 196 17 215 21 11 2 46 6 79 9 33 4 62 8 66 10 3 2
26 6 50 10 188 27 475 111 688 202 864 366 1546 1115 1861 2041 65 193 139
503 156 655 2 18 6 61 10 97 4 36 9 76 12 90 9 44 10 532 2 625 -13 136 -29
277 -34 285 -2 3 -6 30 -10 60 -3 30 -11 75 -17 100 -5 25 -12 56 -14 70 -26
140 -123 448 -194 615 -55 130 -138 296 -207 415 -51 87 -197 308 -212 320 -3
3 -19 23 -35 45 -59 80 -193 232 -296 334 -420 417 -948 717 -1516 861 -167
42 -388 78 -519 84 -60 3 -126 10 -145 16 -43 12 -180 13 -199 1z"/>
<path d="M486 5287 c-55 -93 -121 -228 -166 -337 -12 -30 -28 -68 -35 -85 -8
-16 -23 -57 -35 -90 -12 -33 -25 -69 -30 -80 -14 -30 -100 -302 -106 -331 -1
-6 -9 -36 -17 -65 -18 -64 -44 -194 -53 -264 -3 -27 -13 -84 -22 -125 -13 -59
-17 -127 -17 -320 1 -252 10 -338 61 -539 116 -466 410 -863 859 -1161 56 -36
106 -65 112 -63 6 2 -17 67 -57 156 -37 84 -73 170 -80 192 -7 22 -16 45 -20
50 -13 16 -147 422 -178 540 -60 223 -106 445 -127 615 -3 25 -8 63 -11 85 -3
22 -7 51 -9 65 -2 14 -6 61 -10 105 -3 44 -8 100 -11 125 -6 67 -5 370 2 405
7 38 14 45 15 14 0 -13 2 -33 4 -44 3 -11 7 -57 10 -102 3 -45 7 -97 10 -115
2 -18 9 -73 15 -123 13 -113 52 -354 74 -464 56 -272 195 -731 311 -1026 49
-125 192 -427 224 -473 10 -15 40 -61 67 -102 143 -221 450 -550 690 -740 342
-271 757 -459 1174 -534 194 -35 275 -41 515 -41 180 0 253 4 395 21 64 7 282
44 290 49 4 2 17 6 31 8 187 35 520 166 730 287 129 74 322 205 375 255 6 5
39 32 72 60 72 59 266 253 343 345 201 237 366 506 492 801 39 91 120 316 132
366 3 10 18 72 34 138 16 66 32 138 35 159 4 21 8 48 11 60 8 36 22 149 34
266 9 84 7 507 -2 565 -3 17 -8 60 -12 97 -4 43 -13 76 -25 90 l-19 23 5 -25
c6 -28 6 -364 0 -426 -11 -115 -18 -174 -26 -229 -5 -33 -12 -78 -15 -100 -4
-22 -8 -48 -11 -57 -3 -10 -7 -30 -10 -45 -38 -219 -167 -580 -301 -848 -88
-176 -225 -402 -300 -495 -6 -8 -46 -58 -88 -110 -419 -521 -1021 -888 -1650
-1005 -544 -101 -1112 -11 -1564 249 -185 106 -419 302 -537 451 -21 28 -41
52 -44 55 -12 12 -90 120 -90 125 0 3 -15 26 -34 52 -73 103 -179 316 -178
355 0 16 21 63 45 106 70 120 86 150 127 231 145 286 233 616 234 871 0 159
-18 257 -69 385 -55 137 -136 241 -284 368 -149 126 -185 160 -351 326 -294
295 -563 640 -786 1008 -36 59 -71 114 -79 122 -11 11 -22 -2 -69 -82z"/>
<path d="M4757 5054 c-44 -16 -111 -20 -147 -10 -19 6 -17 3 10 -14 19 -12 58
-42 86 -66 l52 -44 -1 40 c-1 27 6 47 20 62 44 50 42 54 -20 32z"/>
<path d="M4590 4832 c-40 -6 -115 -39 -173 -76 -31 -20 -63 -36 -72 -36 -8 0
-43 11 -77 25 -58 24 -138 34 -138 18 1 -5 31 -23 68 -40 70 -34 152 -92 221
-155 l39 -37 -5 54 c-8 72 15 106 126 191 84 64 85 66 11 56z"/>
<path d="M3075 3739 c-316 -37 -530 -99 -691 -200 -105 -67 -147 -130 -138
-210 7 -59 6 -252 0 -299 -43 -289 -141 -586 -281 -854 -98 -188 -106 -270
-40 -401 84 -167 324 -446 505 -587 30 -23 57 -45 60 -48 10 -10 146 -98 205
-131 224 -127 485 -208 765 -237 89 -10 456 -8 525 2 22 3 74 11 115 17 104
15 297 62 405 99 277 94 534 237 770 427 112 90 313 285 395 383 30 36 63 73
72 84 10 10 43 55 75 98 157 214 296 475 428 806 110 277 138 363 125 376 -6
6 -37 11 -68 12 -89 2 -200 14 -277 30 -38 9 -80 17 -92 20 -24 5 -305 100
-338 114 -28 13 -359 131 -486 173 -317 107 -879 246 -1164 288 -112 16 -121
17 -200 24 -38 3 -86 8 -105 11 -60 9 -491 11 -565 3z"/>
<path d="M6390 3635 c-158 -106 -305 -140 -640 -150 -130 -3 -222 -16 -287
-39 -33 -12 -35 -15 -18 -21 11 -4 61 -22 110 -40 420 -155 531 -184 742 -190
132 -5 127 -9 138 105 4 41 9 86 11 100 6 44 17 280 13 279 -2 0 -33 -20 -69
-44z"/>
</g>
</svg>
