<?xml version="1.0" standalone="no"?>
<!DOCTYPE svg PUBLIC "-//W3C//DTD SVG 20010904//EN"
 "http://www.w3.org/TR/2001/REC-SVG-20010904/DTD/svg10.dtd">
<svg version="1.0" xmlns="http://www.w3.org/2000/svg"
 width="94.000000pt" height="94.000000pt" viewBox="0 0 94.000000 94.000000"
 preserveAspectRatio="xMidYMid meet">
<metadata>
Created by potrace 1.14, written by Peter Selinger 2001-2017
</metadata>
<g transform="translate(0.000000,94.000000) scale(0.100000,-0.100000)"
fill="#000000" stroke="none">
<path d="M355 825 c-102 -42 -215 -149 -187 -177 8 -8 24 -5 59 10 26 11 51
18 55 14 4 -4 9 -33 11 -65 4 -58 16 -90 18 -46 2 51 9 115 14 137 7 30 31 28
39 -3 11 -41 34 -30 42 20 8 57 24 59 24 3 0 -24 5 -50 10 -58 7 -11 10 -5 10
25 1 35 2 38 14 23 17 -23 26 -23 26 0 0 27 8 31 35 18 16 -7 25 -19 25 -34 0
-13 4 -20 10 -17 6 3 10 24 10 46 0 21 5 39 10 39 6 0 10 -4 10 -9 0 -5 7 -26
16 -47 l17 -39 9 28 c13 37 36 34 43 -5 9 -56 13 -92 14 -117 2 -39 9 -20 16
39 3 30 9 58 13 62 4 4 26 -5 50 -20 32 -21 45 -38 58 -74 91 -273 -187 -538
-458 -437 -38 14 -82 43 -127 83 -38 33 -65 62 -61 64 4 1 -3 32 -16 68 -13
36 -24 70 -23 77 0 7 8 -11 18 -38 49 -137 111 -206 222 -244 114 -39 241 -14
328 65 83 75 116 147 118 259 l1 60 -8 -63 c-17 -124 -98 -240 -198 -285 -112
-49 -248 -25 -317 55 -41 48 -42 55 -15 105 11 21 20 48 20 60 0 13 4 23 9 23
11 0 -5 -62 -26 -103 -12 -25 -12 -31 4 -58 39 -65 132 -105 225 -95 102 10
196 75 243 166 37 74 39 85 11 88 -14 1 -58 13 -98 26 -90 30 -186 46 -255 42
-54 -3 -108 -29 -98 -46 4 -6 1 -10 -4 -10 -6 0 -11 9 -11 20 0 12 -25 44 -59
76 -32 30 -71 73 -86 95 -15 21 -31 39 -35 39 -16 0 -53 -108 -58 -166 -6 -79
10 -127 60 -175 22 -22 35 -39 28 -39 -22 0 65 -98 119 -134 77 -51 148 -70
238 -63 141 11 258 91 316 216 79 168 29 361 -123 473 -95 70 -244 88 -355 43z"/>
<path d="M605 630 c3 -5 8 -10 11 -10 2 0 4 5 4 10 0 6 -5 10 -11 10 -5 0 -7
-4 -4 -10z"/>
<path d="M581 611 c-8 -5 -21 -7 -30 -4 -10 4 -9 0 4 -10 11 -8 20 -15 20 -14
1 1 7 10 14 20 15 19 13 21 -8 8z"/>
<path d="M785 479 c-11 -4 -38 -8 -59 -8 -47 -1 -43 -8 16 -26 50 -15 71 -8
66 22 -2 16 -7 18 -23 12z"/>
</g>
</svg>
